# xmcd
#
# Track frame offsets: 
#        150
#        12668
#        30337
#        44740
#        61979
#        80290
#        96961
#        112073
#        128166
#        147165
#        160954
#        173603
#        188928
#        204063
#        216741
#        229461
#        245155
#        266217
#        278735
#        292522
#
# Disc length: 4168 seconds
#
# Revision: 1
# Processed by: cddbd v1.5.2PL0 Copyright (c) Steve Scherf et al.
# Submitted via: ExactAudioCopy v0.99pb3
#
DISCID=2c104614
DTITLE=Lourenco e Lourival - As 20 Mais
DYEAR=1996
DGENRE=Sertanejo
TTITLE0=Flor do Baile
TTITLE1=Franguinho na Panela
TTITLE2=Cruz Que Eu Carrego
TTITLE3=Como Eu Chorei
TTITLE4=Velha Porteira
TTITLE5=Condenado Por Amor
TTITLE6=O Dinheiro Compra Tudo
TTITLE7=Amor Sem Fronteira
TTITLE8=As Tres Namoradas
TTITLE9=Anel de Noivado
TTITLE10=Amor Inocente
TTITLE11=Um Ano de Saudade
TTITLE12=Minhas Ferias
TTITLE13=Meu Passarinho
TTITLE14=Buscando a Mineira
TTITLE15=Meu Reino Encantado
TTITLE16=Menina da Aldeia
TTITLE17=Bom de Bico
TTITLE18=Canto Chorando
TTITLE19=Os Tres Boiadeiros Japoneses
EXTD=
EXTT0=
EXTT1=
EXTT2=
EXTT3=
EXTT4=
EXTT5=
EXTT6=
EXTT7=
EXTT8=
EXTT9=
EXTT10=
EXTT11=
EXTT12=
EXTT13=
EXTT14=
EXTT15=
EXTT16=
EXTT17=
EXTT18=
EXTT19=
PLAYORDER=
